<?xml version="1.0" standalone="no"?>
<!DOCTYPE svg PUBLIC "-//W3C//DTD SVG 20010904//EN"
 "http://www.w3.org/TR/2001/REC-SVG-20010904/DTD/svg10.dtd">
<svg version="1.0" xmlns="http://www.w3.org/2000/svg"
 width="302.000000pt" height="160.000000pt" viewBox="0 0 302.000000 160.000000"
 preserveAspectRatio="xMidYMid meet">

<g transform="translate(0.000000,160.000000) scale(0.100000,-0.100000)"
fill="#000000" stroke="none">
<path d="M203 1399 c-18 -5 -33 -11 -33 -12 0 -1 28 -2 63 -2 46 0 69 -5 89
-20 81 -61 87 -185 13 -260 -31 -30 -38 -33 -61 -25 -14 6 -40 10 -57 9 -29
-1 -27 -2 13 -11 41 -9 43 -11 25 -24 -10 -8 -32 -14 -48 -14 l-30 0 7 80 c3
44 15 108 26 142 24 75 23 68 7 68 -37 0 -76 -101 -77 -197 0 -32 -4 -43 -15
-43 -26 0 -30 -31 -7 -49 16 -12 25 -38 36 -105 9 -49 19 -93 23 -97 5 -5 6
36 5 89 l-4 97 59 11 c71 13 77 11 97 -31 21 -43 20 -63 -4 -102 -25 -41 -61
-51 -108 -29 -32 16 -34 16 -22 1 41 -49 118 -55 158 -12 48 51 47 115 -4 168
l-25 27 49 50 c41 40 52 58 57 96 8 54 1 89 -27 128 -38 54 -139 87 -205 67z
m-63 -340 c0 -18 -2 -19 -15 -9 -15 12 -12 30 6 30 5 0 9 -10 9 -21z"/>
<path d="M1264 1375 c-135 -81 -204 -403 -107 -499 54 -54 142 -38 191 35 30
45 36 45 50 7 6 -18 23 -46 37 -63 l25 -30 -16 45 c-18 51 -24 201 -10 269 9
42 9 43 -13 32 -30 -16 -43 -53 -46 -132 -3 -71 -19 -111 -57 -146 -79 -74
-158 -9 -158 129 0 67 26 182 57 250 33 75 71 108 124 108 34 0 41 -4 50 -27
6 -16 8 -45 6 -65 -6 -43 10 -60 30 -33 16 23 17 85 0 106 -34 45 -102 51
-163 14z"/>
<path d="M2907 1377 c-5 -14 10 -327 16 -334 4 -3 9 50 23 255 7 88 6 92 -13
92 -12 0 -23 -6 -26 -13z"/>
<path d="M125 1358 c-53 -42 -70 -138 -24 -138 18 0 19 5 13 48 -5 43 -3 52
21 80 31 37 28 40 -10 10z"/>
<path d="M2212 1268 l-20 -63 -46 -3 c-57 -4 -58 -25 -3 -30 l37 -3 0 -56 c0
-31 5 -73 12 -95 13 -43 58 -88 89 -88 25 0 71 23 89 45 12 14 9 14 -24 -1
-34 -17 -40 -17 -64 -4 -36 20 -62 76 -65 141 l-2 54 89 7 c49 4 91 10 94 13
3 3 -30 5 -74 5 -106 0 -110 4 -96 76 16 78 8 80 -16 2z"/>
<path d="M2632 1258 l-20 -63 -43 0 c-32 0 -44 -4 -44 -15 0 -10 12 -16 38
-18 l37 -3 0 -52 c0 -110 41 -177 107 -177 35 0 83 25 83 43 0 7 -4 7 -12 -1
-18 -18 -72 -14 -95 8 -26 23 -42 69 -45 130 l-3 45 70 8 c136 16 145 22 38
25 -57 1 -103 6 -103 11 0 5 5 32 10 61 14 75 5 74 -18 -2z"/>
<path d="M2460 1215 c-13 -16 -6 -35 15 -35 16 0 38 34 28 44 -11 10 -30 7
-43 -9z"/>
<path d="M2031 1188 c-6 -17 -10 -33 -8 -35 8 -7 49 46 42 56 -11 19 -23 12
-34 -21z"/>
<path d="M2418 1193 c7 -3 16 -2 19 1 4 3 -2 6 -13 5 -11 0 -14 -3 -6 -6z"/>
<path d="M476 1109 c-44 -52 -46 -109 -6 -149 66 -66 182 1 166 98 -9 59 -54
89 -95 63 -15 -10 -7 -31 13 -31 20 0 56 -44 56 -68 0 -27 -33 -62 -58 -62
-51 0 -87 92 -58 148 21 40 15 41 -18 1z"/>
<path d="M682 1128 c-15 -15 -14 -64 1 -137 14 -62 32 -75 48 -34 7 15 23 53
37 83 l25 55 8 -40 c17 -79 20 -86 39 -105 25 -25 52 -25 81 0 l24 20 -26 -9
c-39 -14 -56 3 -69 67 -19 98 -20 102 -35 102 -16 0 -53 -54 -78 -115 l-16
-40 0 83 c-1 83 -10 99 -39 70z"/>
<path d="M1507 1133 c-11 -10 -8 -465 2 -459 14 9 29 119 36 249 7 160 33 210
90 173 19 -13 25 -25 25 -54 0 -39 -22 -82 -42 -82 -6 0 -20 7 -30 17 -22 19
-36 10 -18 -12 33 -40 112 9 126 79 8 47 -19 89 -60 94 -31 4 -51 -10 -78 -53
l-18 -30 0 43 c0 40 -14 55 -33 35z"/>
<path d="M1747 1134 c-11 -11 -9 -466 2 -459 15 9 30 101 36 220 3 61 7 121
10 135 11 62 -21 131 -48 104z"/>
<path d="M1822 1117 c-28 -29 -29 -54 -2 -27 11 11 26 20 33 20 23 0 50 -38
50 -69 0 -56 -54 -107 -69 -66 -6 15 -34 21 -34 7 0 -16 25 -32 50 -32 66 0
118 122 71 169 -28 28 -72 27 -99 -2z"/>
<path d="M2004 1106 c-83 -83 -8 -201 105 -167 21 6 46 20 57 32 l19 22 -32
-17 c-48 -24 -89 -21 -121 11 -25 25 -25 27 -7 34 11 4 30 8 41 8 51 2 91 78
53 102 -32 20 -80 10 -115 -25z m86 -10 c0 -26 -41 -66 -68 -66 -11 0 -13 7
-8 32 8 41 23 58 52 58 19 0 24 -5 24 -24z"/>
<path d="M2466 1112 c-50 -53 -48 -140 4 -167 28 -15 34 -14 75 4 51 23 63 48
13 26 -33 -13 -63 -6 -80 19 -13 19 -9 86 7 116 19 37 16 37 -19 2z"/>
<path d="M2896 973 c-9 -21 16 -46 37 -37 9 3 17 17 17 30 0 19 -5 24 -24 24
-13 0 -27 -8 -30 -17z"/>
<path d="M2927 880 c47 -28 73 -86 73 -162 0 -121 -71 -198 -213 -229 -31 -7
-60 -9 -63 -6 -4 3 3 22 15 41 66 107 19 256 -99 309 -61 27 -228 30 -280 4
-26 -13 -28 -16 -10 -12 135 29 173 28 267 -7 61 -22 109 -72 119 -123 12 -63
-1 -129 -32 -173 l-29 -42 -160 0 c-252 0 -363 17 -945 145 -616 136 -688 149
-867 165 -334 29 -602 -76 -672 -266 -42 -111 -23 -222 49 -295 91 -91 264
-100 473 -22 38 14 66 27 64 30 -3 2 -21 -3 -41 -11 -51 -21 -187 -46 -252
-46 -73 0 -147 17 -186 43 -19 12 -45 46 -61 77 -25 47 -28 64 -24 115 10 142
110 241 292 291 119 33 362 30 550 -6 59 -12 932 -196 990 -210 144 -33 406
-60 585 -60 106 0 122 -2 105 -13 -38 -26 -111 -46 -203 -59 -156 -20 -337 2
-992 118 -269 48 -490 74 -619 74 -84 0 -262 -23 -301 -39 -34 -13 -28 -13 65
4 44 8 134 14 200 14 164 1 325 -21 765 -104 700 -132 931 -137 1122 -22 38
24 75 37 115 41 191 23 293 113 293 260 0 37 -8 77 -19 101 -18 41 -72 95 -94
95 -7 0 2 -9 20 -20z"/>
<path d="M2263 794 c-59 -35 -54 -41 5 -8 56 33 58 34 46 34 -5 0 -28 -12 -51
-26z"/>
<path d="M395 490 c-3 -6 1 -7 9 -4 18 7 21 14 7 14 -6 0 -13 -4 -16 -10z"/>
</g>
</svg>
